M48
;DRILL file {KiCad 4.0.2-stable} date 04.05.2016 19:31:12
;FORMAT={-:-/ absolute / metric / decimal}
FMAT,2
METRIC,TZ
T1C1.000
T2C3.700
%
G90
G05
M71
T1
X66.04Y-34.29
X66.04Y-36.83
X66.04Y-39.37
X66.04Y-41.91
X66.04Y-44.45
X67.31Y-62.23
X67.31Y-64.77
X67.31Y-67.31
X68.58Y-34.29
X68.58Y-36.83
X68.58Y-39.37
X68.58Y-41.91
X68.58Y-44.45
X72.39Y-62.23
X72.39Y-64.77
X72.39Y-67.31
X73.66Y-33.02
X73.66Y-72.39
X74.93Y-36.83
X74.93Y-44.45
X74.93Y-48.26
X74.93Y-50.8
X74.93Y-53.34
X74.93Y-55.88
X77.47Y-36.83
X77.47Y-44.45
X77.47Y-62.23
X77.47Y-64.77
X77.47Y-67.31
X78.66Y-33.02
X78.74Y-50.8
X80.01Y-36.83
X80.01Y-44.45
X81.28Y-33.02
X82.55Y-36.83
X82.55Y-44.45
X83.82Y-53.34
X83.82Y-62.31
X83.82Y-67.31
X83.82Y-72.39
X85.09Y-36.83
X85.09Y-44.45
X85.09Y-48.26
X86.28Y-33.02
X87.63Y-36.83
X87.63Y-44.45
X87.63Y-55.88
X87.63Y-62.23
X87.63Y-64.77
X87.63Y-67.31
X87.63Y-72.39
X88.9Y-33.02
X88.9Y-50.8
X90.17Y-36.83
X90.17Y-44.45
X92.71Y-36.83
X92.71Y-44.45
X93.9Y-33.02
X93.98Y-53.34
X97.79Y-39.37
X97.79Y-44.37
X97.79Y-55.88
X97.79Y-62.23
X97.79Y-64.77
X97.79Y-67.31
X97.79Y-72.39
X100.33Y-33.02
X100.33Y-48.26
X100.33Y-67.31
X102.87Y-33.02
X102.87Y-48.26
X105.41Y-33.02
X105.41Y-36.83
X105.41Y-44.45
X106.68Y-53.34
X106.68Y-55.88
X106.68Y-58.42
X106.68Y-60.96
X106.68Y-63.5
X106.68Y-67.31
X106.68Y-72.31
X107.95Y-33.02
X107.95Y-36.83
X107.95Y-44.45
X109.22Y-46.99
X109.22Y-50.8
X109.22Y-67.31
X113.03Y-50.8
X113.03Y-55.88
X113.03Y-63.5
X113.03Y-67.31
X113.03Y-71.81
X115.57Y-55.88
X115.57Y-63.5
X118.11Y-55.88
X118.11Y-63.5
X119.38Y-46.99
X119.53Y-67.31
X119.53Y-71.81
X120.65Y-55.88
X120.65Y-63.5
X121.92Y-67.31
X123.19Y-46.99
X123.19Y-50.8
X123.19Y-55.88
X123.19Y-63.5
X123.27Y-43.18
X125.73Y-55.88
X125.73Y-63.5
X125.73Y-72.39
X128.19Y-46.99
X128.27Y-43.18
X128.27Y-55.88
X128.27Y-63.5
X128.27Y-72.39
X130.81Y-55.88
X130.81Y-63.5
X132.08Y-43.22
X132.08Y-45.72
X132.08Y-67.31
X132.179Y-50.8
X133.35Y-55.88
X133.35Y-63.5
X134.62Y-67.31
X135.89Y-43.22
X135.89Y-45.72
X135.89Y-55.88
X135.89Y-63.5
X137.061Y-50.8
X138.43Y-55.88
X138.43Y-63.5
X140.335Y-67.31
X140.97Y-30.48
X140.97Y-33.02
X140.97Y-35.56
X140.97Y-45.72
X140.97Y-55.88
X140.97Y-63.5
X143.51Y-38.1
X143.51Y-40.64
X143.51Y-43.18
X143.51Y-45.72
X143.51Y-49.53
X143.51Y-52.03
X143.51Y-55.88
X143.51Y-63.5
X143.51Y-67.31
X143.51Y-69.85
X143.51Y-72.39
X144.78Y-33.02
X146.05Y-55.88
X146.05Y-63.5
X146.05Y-67.31
X146.05Y-69.85
X146.05Y-72.39
X149.78Y-33.02
X152.4Y-53.34
X152.4Y-55.88
X152.4Y-58.42
X152.4Y-60.96
X152.4Y-63.5
X152.4Y-66.04
X152.4Y-68.58
X152.4Y-71.12
T2
X116.84Y-36.83
T0
M30
